<svg width="31" height="21" viewBox="0 0 31 21" fill="none" xmlns="http://www.w3.org/2000/svg">
<path d="M29.544 3.27697C29.2015 1.98708 28.1921 0.971207 26.9106 0.626455C24.5877 0 15.2732 0 15.2732 0C15.2732 0 5.9587 0 3.63575 0.626455C2.3542 0.971262 1.34487 1.98708 1.0023 3.27697C0.379883 5.61497 0.379883 10.493 0.379883 10.493C0.379883 10.493 0.379883 15.371 1.0023 17.709C1.34487 18.9989 2.3542 19.9725 3.63575 20.3172C5.9587 20.9437 15.2732 20.9437 15.2732 20.9437C15.2732 20.9437 24.5876 20.9437 26.9106 20.3172C28.1921 19.9725 29.2015 18.9989 29.544 17.709C30.1665 15.371 30.1665 10.493 30.1665 10.493C30.1665 10.493 30.1665 5.61497 29.544 3.27697ZM12.2268 14.9219V6.06412L20.0119 10.4931L12.2268 14.9219Z" fill="white"/>
</svg>
